<?xml version="1.0" encoding="UTF-8"?>
<svg xmlns="http://www.w3.org/2000/svg" viewBox="0 0 1824 1936" role="img"
       aria-labelledby="uml-wak-title uml-wak-desc">
    <title id="uml-wak-title">UML classes — moteur weekly-advisor-kit</title>
    <desc id="uml-wak-desc">Diagramme de classes UML du moteur : le protocol SessionProvider est réalisé par les providers OpenCode, Claude Code et Copilot VS Code ; WeeklySummary compose Totals, TopSession et WarningEntry ; TelemetryConfig compose cinq blocs de configuration dont WatchDistillConfig ; les constantes de draft_targets alimentent ResolvedDraftTarget puis RemediationSurface ; le sous-système veille regroupe les utilitaires watch_distill et watch_memory autour du contrat JSON fiche candidate.</desc>

    <defs>
      <marker id="tri-a" markerWidth="12" markerHeight="12" refX="11" refY="6" orient="auto">
        <path d="M1 1 L11 6 L1 11 Z" fill="#f5f5f5" stroke="#eb6c36" stroke-width="1.2"/>
      </marker>
      <marker id="tri-i" markerWidth="12" markerHeight="12" refX="11" refY="6" orient="auto">
        <path d="M1 1 L11 6 L1 11 Z" fill="#f5f5f5" stroke="#2d3142" stroke-width="1.2"/>
      </marker>
      <marker id="dia-f" markerWidth="12" markerHeight="12" refX="6" refY="6" orient="auto">
        <path d="M6 1 L11 6 L6 11 L1 6 Z" fill="#2d3142" stroke="#2d3142" stroke-width="0.8"/>
      </marker>
      <marker id="dia-h" markerWidth="12" markerHeight="12" refX="6" refY="6" orient="auto">
        <path d="M6 1 L11 6 L6 11 L1 6 Z" fill="#f5f5f5" stroke="#2d3142" stroke-width="1"/>
      </marker>
      <marker id="arr-o" markerWidth="10" markerHeight="12" refX="9" refY="6" orient="auto">
        <path d="M1 1 L9 6 L1 11" fill="none" stroke="#4f5d75" stroke-width="1.2"/>
      </marker>
    </defs>

    <rect width="100%" height="100%" fill="#f5f5f5"/>

    <!-- zones -->
    <rect x="24" y="64" width="960" height="692" rx="8" fill="rgba(45,49,66,0.03)" stroke="rgba(45,49,66,0.10)"/>
    <rect x="1008" y="64" width="784" height="692" rx="8" fill="rgba(45,49,66,0.03)" stroke="rgba(45,49,66,0.10)"/>
    <rect x="24" y="804" width="632" height="584" rx="8" fill="rgba(45,49,66,0.03)" stroke="rgba(45,49,66,0.10)"/>
    <rect x="688" y="804" width="1104" height="584" rx="8" fill="rgba(45,49,66,0.03)" stroke="rgba(45,49,66,0.10)"/>

    <text x="40" y="88" font-family="var(--mono)" font-size="8" letter-spacing=".18em" fill="#4f5d75">PACKAGE · MODELS — WEEKLY_TELEMETRY_AGGREGATOR/MODELS.PY</text>
    <text x="1024" y="88" font-family="var(--mono)" font-size="8" letter-spacing=".18em" fill="#4f5d75">PACKAGE · PROVIDERS — BASE.PY · REGISTRY.PY · IMPLEMENTATIONS/</text>
    <text x="40" y="828" font-family="var(--mono)" font-size="8" letter-spacing=".18em" fill="#4f5d75">PACKAGE · CONFIG — CONFIG.PY</text>
    <text x="704" y="828" font-family="var(--mono)" font-size="8" letter-spacing=".18em" fill="#4f5d75">PACKAGE · TARGETS/SCOPE — DRAFT_TARGETS.PY · HARNESS_SCOPE.PY</text>

    <!-- arêtes : réalisation ×3 -->
    <path d="M 1168 400 V 324 A 8 8 0 0 1 1176 316 H 1428 A 8 8 0 0 0 1436 308 V 296"
          fill="none" stroke="#eb6c36" stroke-width="1.2" stroke-dasharray="5 4" marker-end="url(#tri-a)"/>
    <path d="M 1412 400 V 372 A 8 8 0 0 1 1420 364 H 1468 A 8 8 0 0 0 1476 356 V 296"
          fill="none" stroke="#eb6c36" stroke-width="1.2" stroke-dasharray="5 4" marker-end="url(#tri-a)"/>
    <path d="M 1656 400 V 316 A 8 8 0 0 1 1664 308 H 1684 A 8 8 0 0 0 1692 300 V 296"
          fill="none" stroke="#eb6c36" stroke-width="1.2" stroke-dasharray="5 4" marker-end="url(#tri-a)"/>

    <!-- arêtes : dépendances -->
    <path d="M 1528 600 V 296" fill="none" stroke="#4f5d75" stroke-width="1" stroke-dasharray="4 3" marker-end="url(#arr-o)"/>
    <path d="M 1168 544 V 600" fill="none" stroke="#4f5d75" stroke-width="1" stroke-dasharray="4 3" marker-end="url(#arr-o)"/>
    <path d="M 1420 204 H 1320" fill="none" stroke="#4f5d75" stroke-width="1" stroke-dasharray="4 3" marker-end="url(#arr-o)"/>
    <path d="M 616 1188 H 696 A 8 8 0 0 0 704 1180 V 1076 A 8 8 0 0 0 696 1068 H 720"
          fill="none" stroke="#4f5d75" stroke-width="1" stroke-dasharray="4 3" marker-end="url(#arr-o)"/>
    <path d="M 860 972 V 1016" fill="none" stroke="#4f5d75" stroke-width="1" stroke-dasharray="4 3" marker-end="url(#arr-o)"/>
    <path d="M 860 1120 V 1164" fill="none" stroke="#4f5d75" stroke-width="1" stroke-dasharray="4 3" marker-end="url(#arr-o)"/>

    <!-- arête : association session_sources -->
    <path d="M 188 852 V 788 A 8 8 0 0 1 196 780 H 1580 A 8 8 0 0 0 1588 772 V 720"
          fill="none" stroke="#4f5d75" stroke-width="1.2" marker-end="url(#arr-o)"/>

    <!-- arêtes : compositions modèles -->
    <path d="M 296 148 H 388 A 8 8 0 0 1 396 156 V 360 A 8 8 0 0 0 404 368 H 432"
          fill="none" stroke="#4f5d75" stroke-width="1.2" marker-start="url(#dia-f)"/>
    <path d="M 296 184 H 360 A 8 8 0 0 1 368 192 V 528 A 8 8 0 0 0 376 536 H 432"
          fill="none" stroke="#4f5d75" stroke-width="1.2" marker-start="url(#dia-f)"/>
    <path d="M 296 220 H 332 A 8 8 0 0 1 340 228 V 672 A 8 8 0 0 0 348 680 H 432"
          fill="none" stroke="#4f5d75" stroke-width="1.2" marker-start="url(#dia-f)"/>
    <path d="M 176 488 V 536" fill="none" stroke="#4f5d75" stroke-width="1.2" marker-start="url(#dia-f)"/>

    <!-- arêtes : compositions config -->
    <path d="M 320 884 H 378 A 6 6 0 0 1 384 890 V 894 A 6 6 0 0 0 390 900 H 400"
          fill="none" stroke="#4f5d75" stroke-width="1.2" marker-start="url(#dia-f)"/>
    <path d="M 320 916 H 360 A 8 8 0 0 1 368 924 V 1036 A 8 8 0 0 0 376 1044 H 400"
          fill="none" stroke="#4f5d75" stroke-width="1.2" marker-start="url(#dia-f)"/>
    <path d="M 320 948 H 344 A 8 8 0 0 1 352 956 V 1180 A 8 8 0 0 0 360 1188 H 400"
          fill="none" stroke="#4f5d75" stroke-width="1.2" marker-start="url(#dia-f)"/>
    <path d="M 320 980 H 328 A 8 8 0 0 1 336 988 V 1300 A 8 8 0 0 0 344 1308 H 400"
          fill="none" stroke="#4f5d75" stroke-width="1.2" marker-start="url(#dia-f)"/>

    <!-- étiquettes d'arêtes -->
    <rect x="1176" y="346" width="64" height="12" fill="#efeff1"/>
    <text x="1180" y="355" font-family="var(--mono)" font-size="8" letter-spacing=".06em" fill="#7a8399">implements</text>
    <rect x="1344" y="368" width="60" height="12" fill="#efeff1"/>
    <text x="1400" y="377" text-anchor="end" font-family="var(--mono)" font-size="8" letter-spacing=".06em" fill="#7a8399">implements</text>
    <rect x="1664" y="342" width="64" height="12" fill="#efeff1"/>
    <text x="1668" y="351" font-family="var(--mono)" font-size="8" letter-spacing=".06em" fill="#7a8399">implements</text>

    <rect x="1536" y="564" width="48" height="12" fill="#efeff1"/>
    <text x="1540" y="573" font-family="var(--mono)" font-size="8" letter-spacing=".06em" fill="#7a8399">creates</text>
    <rect x="1108" y="562" width="50" height="12" fill="#efeff1"/>
    <text x="1160" y="571" text-anchor="end" font-family="var(--mono)" font-size="8" letter-spacing=".06em" fill="#7a8399">delegates</text>
    <rect x="1344" y="186" width="52" height="12" fill="#efeff1"/>
    <text x="1370" y="195" text-anchor="middle" font-family="var(--mono)" font-size="8" letter-spacing=".06em" fill="#7a8399">returns</text>

    <rect x="712" y="1128" width="46" height="12" fill="#efeff1"/>
    <text x="716" y="1137" font-family="var(--mono)" font-size="8" letter-spacing=".06em" fill="#7a8399">resolves</text>
    <rect x="806" y="986" width="48" height="12" fill="#efeff1"/>
    <text x="852" y="995" text-anchor="end" font-family="var(--mono)" font-size="8" letter-spacing=".06em" fill="#7a8399">priorité</text>
    <rect x="796" y="1134" width="56" height="12" fill="#efeff1"/>
    <text x="852" y="1143" text-anchor="end" font-family="var(--mono)" font-size="8" letter-spacing=".06em" fill="#7a8399">feeds 5.5</text>

    <rect x="848" y="762" width="84" height="12" fill="#f5f5f5"/>
    <text x="890" y="771" text-anchor="middle" font-family="var(--mono)" font-size="8" letter-spacing=".06em" fill="#7a8399">session_sources</text>
    <rect x="196" y="794" width="12" height="12" fill="#f5f5f5"/>
    <text x="200" y="803" font-family="var(--mono)" font-size="8" fill="#4f5d75">1</text>
    <rect x="1544" y="742" width="34" height="12" fill="#f5f5f5"/>
    <text x="1580" y="751" text-anchor="end" font-family="var(--mono)" font-size="8" fill="#4f5d75">0..*</text>

    <!-- multiplicités compositions -->
    <rect x="404" y="250" width="14" height="12" fill="#efeff1"/>
    <text x="408" y="259" font-family="var(--mono)" font-size="8" fill="#4f5d75">1</text>
    <rect x="376" y="470" width="38" height="12" fill="#efeff1"/>
    <text x="380" y="479" font-family="var(--mono)" font-size="8" fill="#4f5d75">0..*</text>
    <rect x="298" y="560" width="38" height="12" fill="#efeff1"/>
    <text x="334" y="569" text-anchor="end" font-family="var(--mono)" font-size="8" fill="#4f5d75">0..*</text>
    <rect x="184" y="500" width="38" height="12" fill="#efeff1"/>
    <text x="188" y="509" font-family="var(--mono)" font-size="8" fill="#4f5d75">0..*</text>

    <rect x="362" y="886" width="16" height="12" fill="#efeff1"/>
    <text x="376" y="895" text-anchor="end" font-family="var(--mono)" font-size="8" fill="#4f5d75">1</text>
    <rect x="376" y="976" width="14" height="12" fill="#efeff1"/>
    <text x="380" y="985" font-family="var(--mono)" font-size="8" fill="#4f5d75">1</text>
    <rect x="360" y="1180" width="14" height="12" fill="#efeff1"/>
    <text x="364" y="1189" font-family="var(--mono)" font-size="8" fill="#4f5d75">1</text>
    <rect x="344" y="1300" width="14" height="12" fill="#efeff1"/>
    <text x="348" y="1309" font-family="var(--mono)" font-size="8" fill="#4f5d75">1</text>

    <!-- ======== nœuds ======== -->

    <!-- WeeklySummary -->
    <rect x="56" y="120" width="240" height="144" rx="6" fill="#ffffff" stroke="#2d3142"/>
    <text x="176" y="141" text-anchor="middle" font-family="var(--sans)" font-size="12" font-weight="600" fill="#2d3142">WeeklySummary</text>
    <line x1="56" y1="152" x2="296" y2="152" stroke="rgba(45,49,66,0.25)" stroke-width="0.8"/>
    <text x="68" y="166" font-family="var(--mono)" font-size="9" fill="#444a59">+ period: Period</text>
    <text x="68" y="182" font-family="var(--mono)" font-size="9" fill="#444a59">+ generated_at: datetime</text>
    <text x="68" y="198" font-family="var(--mono)" font-size="9" fill="#444a59">+ totals: Totals</text>
    <text x="68" y="214" font-family="var(--mono)" font-size="9" fill="#444a59">+ top_sessions_by_cost: TopSession[*]</text>
    <text x="68" y="230" font-family="var(--mono)" font-size="9" fill="#444a59">+ warnings: WarningEntry[*]</text>
    <text x="68" y="246" font-family="var(--mono)" font-size="9" fill="#7a8399">… daily_totals, by_model, cost_est…</text>

    <!-- Totals -->
    <rect x="432" y="296" width="208" height="144" rx="6" fill="#ffffff" stroke="#2d3142"/>
    <text x="536" y="317" text-anchor="middle" font-family="var(--sans)" font-size="12" font-weight="600" fill="#2d3142">Totals</text>
    <line x1="432" y1="328" x2="640" y2="328" stroke="rgba(45,49,66,0.25)" stroke-width="0.8"/>
    <text x="444" y="342" font-family="var(--mono)" font-size="9" fill="#444a59">+ session_count: int</text>
    <text x="444" y="358" font-family="var(--mono)" font-size="9" fill="#444a59">+ total_tokens: int</text>
    <text x="444" y="374" font-family="var(--mono)" font-size="9" fill="#444a59">+ total_cost_usd: float</text>
    <text x="444" y="390" font-family="var(--mono)" font-size="9" fill="#444a59">+ cache_hit_rate: float|None</text>
    <text x="444" y="406" font-family="var(--mono)" font-size="9" fill="#7a8399">… cache_read/write, fresh_in…</text>

    <!-- TopSession -->
    <rect x="432" y="464" width="208" height="144" rx="6" fill="#ffffff" stroke="#2d3142"/>
    <text x="536" y="485" text-anchor="middle" font-family="var(--sans)" font-size="12" font-weight="600" fill="#2d3142">TopSession</text>
    <line x1="432" y1="496" x2="640" y2="496" stroke="rgba(45,49,66,0.25)" stroke-width="0.8"/>
    <text x="444" y="510" font-family="var(--mono)" font-size="9" fill="#444a59">+ session_id: str</text>
    <text x="444" y="526" font-family="var(--mono)" font-size="9" fill="#444a59">+ title_or_topic: str|None</text>
    <text x="444" y="542" font-family="var(--mono)" font-size="9" fill="#444a59">+ cost_usd: float</text>
    <text x="444" y="558" font-family="var(--mono)" font-size="9" fill="#444a59">+ total_tokens: int</text>
    <text x="444" y="574" font-family="var(--mono)" font-size="9" fill="#7a8399">… duration_s, api_calls, cache_eff…</text>

    <!-- WarningEntry -->
    <rect x="432" y="616" width="208" height="128" rx="6" fill="#ffffff" stroke="#2d3142"/>
    <text x="536" y="637" text-anchor="middle" font-family="var(--sans)" font-size="12" font-weight="600" fill="#2d3142">WarningEntry</text>
    <line x1="432" y1="648" x2="640" y2="648" stroke="rgba(45,49,66,0.25)" stroke-width="0.8"/>
    <text x="444" y="662" font-family="var(--mono)" font-size="9" fill="#444a59">+ session_id: str|None</text>
    <text x="444" y="678" font-family="var(--mono)" font-size="9" fill="#444a59">+ message: str</text>
    <text x="444" y="694" font-family="var(--mono)" font-size="9" fill="#444a59">+ partial: bool</text>
    <text x="444" y="710" font-family="var(--mono)" font-size="9" fill="#444a59">+ parts_cost: float|None</text>
    <text x="444" y="726" font-family="var(--mono)" font-size="9" fill="#444a59">+ session_v2_cost: float|None</text>

    <!-- SessionUsage -->
    <rect x="56" y="312" width="240" height="176" rx="6" fill="#ffffff" stroke="#2d3142"/>
    <text x="176" y="333" text-anchor="middle" font-family="var(--sans)" font-size="12" font-weight="600" fill="#2d3142">SessionUsage</text>
    <line x1="56" y1="344" x2="296" y2="344" stroke="rgba(45,49,66,0.25)" stroke-width="0.8"/>
    <text x="68" y="358" font-family="var(--mono)" font-size="9" fill="#444a59">+ session_id: str</text>
    <text x="68" y="374" font-family="var(--mono)" font-size="9" fill="#444a59">+ steps: StepFinish[*]</text>
    <text x="68" y="390" font-family="var(--mono)" font-size="9" fill="#444a59">+ tool_calls: dict[str,int]</text>
    <text x="68" y="406" font-family="var(--mono)" font-size="9" fill="#444a59">+ skills_loaded: dict[str,int]</text>
    <text x="68" y="422" font-family="var(--mono)" font-size="9" fill="#444a59">+ context_chars: dict[str,int]</text>
    <text x="68" y="438" font-family="var(--mono)" font-size="9" fill="#7a8399">… user_turns, reported_cost…</text>
    <line x1="56" y1="456" x2="296" y2="456" stroke="rgba(45,49,66,0.25)" stroke-width="0.8"/>
    <text x="68" y="470" font-family="var(--mono)" font-size="9" fill="#444a59">+ cost_usd(): float</text>

    <!-- StepFinish -->
    <rect x="56" y="536" width="240" height="176" rx="6" fill="#ffffff" stroke="#2d3142"/>
    <text x="176" y="557" text-anchor="middle" font-family="var(--sans)" font-size="12" font-weight="600" fill="#2d3142">StepFinish</text>
    <line x1="56" y1="568" x2="296" y2="568" stroke="rgba(45,49,66,0.25)" stroke-width="0.8"/>
    <text x="68" y="582" font-family="var(--mono)" font-size="9" fill="#444a59">+ session_id: str</text>
    <text x="68" y="598" font-family="var(--mono)" font-size="9" fill="#444a59">+ timestamp: datetime</text>
    <text x="68" y="614" font-family="var(--mono)" font-size="9" fill="#444a59">+ model: str</text>
    <text x="68" y="630" font-family="var(--mono)" font-size="9" fill="#444a59">+ cost: float|None</text>
    <text x="68" y="646" font-family="var(--mono)" font-size="9" fill="#7a8399">… tokens in/out/reasoning/cache…</text>
    <line x1="56" y1="680" x2="296" y2="680" stroke="rgba(45,49,66,0.25)" stroke-width="0.8"/>
    <text x="68" y="694" font-family="var(--mono)" font-size="9" fill="#444a59">+ total_tokens(): int</text>

    <!-- models helpers (utility) -->
    <rect x="720" y="120" width="224" height="96" rx="6" fill="rgba(45,49,66,0.05)" stroke="#4f5d75"/>
    <text x="832" y="135" text-anchor="middle" font-family="var(--mono)" font-size="8" letter-spacing=".08em" fill="#7a8399">«UTILITY · MODELS.PY»</text>
    <text x="832" y="151" text-anchor="middle" font-family="var(--sans)" font-size="12" font-weight="600" fill="#2d3142">models helpers</text>
    <line x1="720" y1="160" x2="944" y2="160" stroke="rgba(45,49,66,0.25)" stroke-width="0.8"/>
    <text x="732" y="174" font-family="var(--mono)" font-size="9" fill="#444a59">+ canonical_session_id(h,s): str</text>
    <text x="732" y="190" font-family="var(--mono)" font-size="9" fill="#444a59">+ split_canonical_session_id(s)</text>
    <text x="732" y="206" font-family="var(--mono)" font-size="9" fill="#444a59">+ round6(v): float</text>

    <!-- SkillCatalogEntry -->
    <rect x="720" y="256" width="224" height="112" rx="6" fill="#ffffff" stroke="#2d3142"/>
    <text x="832" y="277" text-anchor="middle" font-family="var(--sans)" font-size="12" font-weight="600" fill="#2d3142">SkillCatalogEntry</text>
    <line x1="720" y1="288" x2="944" y2="288" stroke="rgba(45,49,66,0.25)" stroke-width="0.8"/>
    <text x="732" y="302" font-family="var(--mono)" font-size="9" fill="#444a59">+ name: str</text>
    <text x="732" y="318" font-family="var(--mono)" font-size="9" fill="#444a59">+ description: str</text>
    <text x="732" y="334" font-family="var(--mono)" font-size="9" fill="#444a59">+ body: str</text>
    <text x="732" y="350" font-family="var(--mono)" font-size="9" fill="#444a59">+ target_agents: list[str]</text>

    <!-- Period -->
    <rect x="720" y="416" width="224" height="80" rx="6" fill="#ffffff" stroke="#2d3142"/>
    <text x="832" y="437" text-anchor="middle" font-family="var(--sans)" font-size="12" font-weight="600" fill="#2d3142">Period</text>
    <line x1="720" y1="448" x2="944" y2="448" stroke="rgba(45,49,66,0.25)" stroke-width="0.8"/>
    <text x="732" y="462" font-family="var(--mono)" font-size="9" fill="#444a59">+ start: datetime</text>
    <text x="732" y="478" font-family="var(--mono)" font-size="9" fill="#444a59">+ end: datetime</text>

    <!-- aside 1 -->
    <line x1="716" y1="552" x2="716" y2="636" stroke="rgba(45,49,66,0.25)" stroke-width="2"/>
    <text x="728" y="568" font-family="var(--serif)" font-style="italic" font-size="14" fill="#4f5d75">cost_estimates : champ top-level de</text>
    <text x="728" y="588" font-family="var(--serif)" font-style="italic" font-size="14" fill="#4f5d75">WeeklySummary — None ⇒ clé absente</text>
    <text x="728" y="608" font-family="var(--serif)" font-style="italic" font-size="14" fill="#4f5d75">du payload ; estime les sessions sans</text>
    <text x="728" y="628" font-family="var(--serif)" font-style="italic" font-size="14" fill="#4f5d75">coût enregistré (taux × tokens).</text>

    <!-- HarnessSession -->
    <rect x="1064" y="112" width="256" height="176" rx="6" fill="#ffffff" stroke="#2d3142"/>
    <text x="1192" y="133" text-anchor="middle" font-family="var(--sans)" font-size="12" font-weight="600" fill="#2d3142">HarnessSession</text>
    <line x1="1064" y1="144" x2="1320" y2="144" stroke="rgba(45,49,66,0.25)" stroke-width="0.8"/>
    <text x="1076" y="158" font-family="var(--mono)" font-size="9" fill="#444a59">+ harness: str</text>
    <text x="1076" y="174" font-family="var(--mono)" font-size="9" fill="#444a59">+ session_id: str ⟨canonique⟩</text>
    <text x="1076" y="190" font-family="var(--mono)" font-size="9" fill="#444a59">+ title: str|None</text>
    <text x="1076" y="206" font-family="var(--mono)" font-size="9" fill="#444a59">+ parent_id: str|None</text>
    <text x="1076" y="222" font-family="var(--mono)" font-size="9" fill="#444a59">+ model_key: str</text>
    <text x="1076" y="238" font-family="var(--mono)" font-size="9" fill="#7a8399">… cost, tokens_*, time_*…</text>
    <line x1="1064" y1="256" x2="1320" y2="256" stroke="rgba(45,49,66,0.25)" stroke-width="0.8"/>
    <text x="1076" y="270" font-family="var(--mono)" font-size="9" fill="#444a59">+ from_meta(h, meta): HarnessSession</text>

    <!-- SessionProvider (focal) -->
    <rect x="1420" y="112" width="336" height="184" rx="6" fill="#fdf1ea" stroke="#eb6c36"/>
    <text x="1588" y="127" text-anchor="middle" font-family="var(--mono)" font-size="8" letter-spacing=".08em" fill="#eb6c36">«PROTOCOL»</text>
    <text x="1588" y="143" text-anchor="middle" font-family="var(--sans)" font-size="12" font-weight="600" fill="#2d3142">SessionProvider</text>
    <line x1="1420" y1="152" x2="1756" y2="152" stroke="rgba(235,108,54,0.35)" stroke-width="0.8"/>
    <text x="1432" y="166" font-family="var(--mono)" font-size="9" fill="#444a59">+ harness: str</text>
    <line x1="1420" y1="174" x2="1756" y2="174" stroke="rgba(235,108,54,0.35)" stroke-width="0.8"/>
    <text x="1432" y="188" font-family="var(--mono)" font-size="9" fill="#444a59">+ check_schema(): None</text>
    <text x="1432" y="204" font-family="var(--mono)" font-size="9" fill="#444a59">+ list_sessions(since_ms): HarnessSession[*]</text>
    <text x="1432" y="220" font-family="var(--mono)" font-size="9" fill="#444a59">+ session_steps(sid, s, e): StepFinish[*]</text>
    <text x="1432" y="236" font-family="var(--mono)" font-size="9" fill="#444a59">+ session_tools(sid, s, e): (dict,dict,dict)</text>
    <text x="1432" y="252" font-family="var(--mono)" font-size="9" fill="#444a59">+ find_session_by_title(t): HarnessSession|None</text>
    <text x="1432" y="268" font-family="var(--mono)" font-size="9" fill="#7a8399">… user_turns, context_chars, aggregates,</text>
    <text x="1444" y="284" font-family="var(--mono)" font-size="9" fill="#7a8399">parts, close — ids canoniques «h:id»</text>

    <!-- OpenCodeSessionProvider -->
    <rect x="1064" y="400" width="208" height="144" rx="6" fill="#ffffff" stroke="#2d3142"/>
    <text x="1168" y="421" text-anchor="middle" font-family="var(--sans)" font-size="11" font-weight="600" fill="#2d3142">OpenCodeSessionProvider</text>
    <line x1="1064" y1="432" x2="1272" y2="432" stroke="rgba(45,49,66,0.25)" stroke-width="0.8"/>
    <text x="1076" y="446" font-family="var(--mono)" font-size="9" fill="#444a59">+ db_path: Path</text>
    <text x="1076" y="462" font-family="var(--mono)" font-size="9" fill="#444a59">- _adapter: SchemaAdapter</text>
    <line x1="1064" y1="480" x2="1272" y2="480" stroke="rgba(45,49,66,0.25)" stroke-width="0.8"/>
    <text x="1076" y="494" font-family="var(--mono)" font-size="9" fill="#444a59">+ open(cfg): Provider|None</text>
    <text x="1076" y="510" font-family="var(--mono)" font-size="9" fill="#444a59">- _unwrap(id): str</text>
    <text x="1076" y="526" font-family="var(--mono)" font-size="9" fill="#7a8399">… 11 méthodes → _adapter</text>

    <!-- ClaudeCodeSessionProvider -->
    <rect x="1308" y="400" width="208" height="144" rx="6" fill="#ffffff" stroke="#2d3142"/>
    <text x="1412" y="421" text-anchor="middle" font-family="var(--sans)" font-size="11" font-weight="600" fill="#2d3142">ClaudeCodeSessionProvider</text>
    <line x1="1308" y1="432" x2="1516" y2="432" stroke="rgba(45,49,66,0.25)" stroke-width="0.8"/>
    <text x="1320" y="446" font-family="var(--mono)" font-size="9" fill="#444a59">+ db_path: Path</text>
    <text x="1320" y="462" font-family="var(--mono)" font-size="9" fill="#444a59">- _sessions: dict[str, sess]</text>
    <line x1="1308" y1="480" x2="1516" y2="480" stroke="rgba(45,49,66,0.25)" stroke-width="0.8"/>
    <text x="1320" y="494" font-family="var(--mono)" font-size="9" fill="#444a59">- _load_sessions(dir): dict</text>
    <text x="1320" y="510" font-family="var(--mono)" font-size="9" fill="#444a59">- _to_harness_session(s)</text>
    <text x="1320" y="526" font-family="var(--mono)" font-size="9" fill="#7a8399">… parse JSONL ~/.claude/projects</text>

    <!-- CopilotVSCodeSessionProvider -->
    <rect x="1552" y="400" width="208" height="160" rx="6" fill="#ffffff" stroke="#2d3142"/>
    <text x="1656" y="421" text-anchor="middle" font-family="var(--sans)" font-size="10.5" font-weight="600" fill="#2d3142">CopilotVSCodeSessionProvider</text>
    <line x1="1552" y1="432" x2="1760" y2="432" stroke="rgba(45,49,66,0.25)" stroke-width="0.8"/>
    <text x="1564" y="446" font-family="var(--mono)" font-size="9" fill="#444a59">+ user_dir: Path</text>
    <text x="1564" y="462" font-family="var(--mono)" font-size="9" fill="#444a59">- _sessions: dict[str, sess]</text>
    <text x="1564" y="478" font-family="var(--mono)" font-size="9" fill="#444a59">+ global_state_keys: int|None</text>
    <line x1="1552" y1="496" x2="1760" y2="496" stroke="rgba(45,49,66,0.25)" stroke-width="0.8"/>
    <text x="1564" y="510" font-family="var(--mono)" font-size="9" fill="#444a59">- _load_workspace_sessions()</text>
    <text x="1564" y="526" font-family="var(--mono)" font-size="9" fill="#7a8399">… chatSessions/*.json · vscdb</text>

    <!-- SchemaAdapter (external) -->
    <rect x="1056" y="600" width="288" height="104" rx="6" fill="rgba(45,49,66,0.03)" stroke="rgba(45,49,66,0.30)" stroke-dasharray="4 3"/>
    <text x="1200" y="615" text-anchor="middle" font-family="var(--mono)" font-size="8" letter-spacing=".08em" fill="#7a8399">«EXTERNAL · SQLITE_READER.PY»</text>
    <text x="1200" y="631" text-anchor="middle" font-family="var(--sans)" font-size="12" font-weight="600" fill="#2d3142">SchemaAdapter</text>
    <line x1="1056" y1="640" x2="1344" y2="640" stroke="rgba(45,49,66,0.25)" stroke-width="0.8"/>
    <text x="1068" y="654" font-family="var(--mono)" font-size="9" fill="#444a59">+ conn: Connection</text>
    <text x="1068" y="686" font-family="var(--mono)" font-size="9" fill="#444a59">detect_db(path): (Path, Adapter)</text>

    <!-- provider registry (utility) -->
    <rect x="1420" y="600" width="336" height="120" rx="6" fill="rgba(45,49,66,0.05)" stroke="#4f5d75"/>
    <text x="1588" y="615" text-anchor="middle" font-family="var(--mono)" font-size="8" letter-spacing=".08em" fill="#7a8399">«UTILITY · REGISTRY.PY»</text>
    <text x="1588" y="631" text-anchor="middle" font-family="var(--sans)" font-size="12" font-weight="600" fill="#2d3142">provider registry</text>
    <line x1="1420" y1="640" x2="1756" y2="640" stroke="rgba(45,49,66,0.25)" stroke-width="0.8"/>
    <text x="1432" y="654" font-family="var(--mono)" font-size="9" fill="#444a59">ProviderFactory: alias callable</text>
    <text x="1432" y="686" font-family="var(--mono)" font-size="9" fill="#444a59">+ discover_provider_factories(): dict</text>
    <text x="1432" y="702" font-family="var(--mono)" font-size="9" fill="#444a59">+ build_providers(cfg): list[Provider]</text>

    <!-- TelemetryConfig -->
    <rect x="56" y="852" width="264" height="160" rx="6" fill="#ffffff" stroke="#2d3142"/>
    <text x="188" y="873" text-anchor="middle" font-family="var(--sans)" font-size="12" font-weight="600" fill="#2d3142">TelemetryConfig</text>
    <line x1="56" y1="884" x2="320" y2="884" stroke="rgba(45,49,66,0.25)" stroke-width="0.8"/>
    <text x="68" y="898" font-family="var(--mono)" font-size="9" fill="#444a59">+ project_root: Path|None</text>
    <text x="68" y="914" font-family="var(--mono)" font-size="9" fill="#444a59">+ opencode_db_path: str = "auto"</text>
    <text x="68" y="930" font-family="var(--mono)" font-size="9" fill="#444a59">+ session_sources: list[dict]</text>
    <text x="68" y="946" font-family="var(--mono)" font-size="9" fill="#444a59">+ lookback_days: int = 7</text>
    <text x="68" y="962" font-family="var(--mono)" font-size="9" fill="#7a8399">… draft_targets, harness_include…</text>
    <line x1="56" y1="980" x2="320" y2="980" stroke="rgba(45,49,66,0.25)" stroke-width="0.8"/>
    <text x="68" y="994" font-family="var(--mono)" font-size="9" fill="#444a59">+ window_hours(): float</text>

    <!-- AuditConfig -->
    <rect x="400" y="852" width="216" height="96" rx="6" fill="#ffffff" stroke="#2d3142"/>
    <text x="508" y="873" text-anchor="middle" font-family="var(--sans)" font-size="12" font-weight="600" fill="#2d3142">AuditConfig</text>
    <line x1="400" y1="884" x2="616" y2="884" stroke="rgba(45,49,66,0.25)" stroke-width="0.8"/>
    <text x="412" y="898" font-family="var(--mono)" font-size="9" fill="#444a59">+ cost_per_active_minute_min</text>
    <text x="412" y="914" font-family="var(--mono)" font-size="9" fill="#444a59">+ cache_efficiency_gap: float</text>

    <!-- InsightsConfig -->
    <rect x="400" y="972" width="216" height="144" rx="6" fill="#ffffff" stroke="#2d3142"/>
    <text x="508" y="993" text-anchor="middle" font-family="var(--sans)" font-size="12" font-weight="600" fill="#2d3142">InsightsConfig</text>
    <line x1="400" y1="1004" x2="616" y2="1004" stroke="rgba(45,49,66,0.25)" stroke-width="0.8"/>
    <text x="412" y="1018" font-family="var(--mono)" font-size="9" fill="#444a59">+ weekly_budget_usd: float</text>
    <text x="412" y="1034" font-family="var(--mono)" font-size="9" fill="#444a59">+ monthly_budget_usd: float</text>
    <text x="412" y="1050" font-family="var(--mono)" font-size="9" fill="#444a59">+ cache_hit_rate_min: float</text>
    <text x="412" y="1066" font-family="var(--mono)" font-size="9" fill="#444a59">+ lint_coverage_min: float</text>
    <text x="412" y="1082" font-family="var(--mono)" font-size="9" fill="#444a59">+ never_loaded_runs_threshold</text>
    <text x="412" y="1098" font-family="var(--mono)" font-size="9" fill="#7a8399">… spike_z, lint_max…</text>

    <!-- DraftTargetsConfig -->
    <rect x="400" y="1140" width="216" height="96" rx="6" fill="#ffffff" stroke="#2d3142"/>
    <text x="508" y="1161" text-anchor="middle" font-family="var(--sans)" font-size="12" font-weight="600" fill="#2d3142">DraftTargetsConfig</text>
    <line x1="400" y1="1172" x2="616" y2="1172" stroke="rgba(45,49,66,0.25)" stroke-width="0.8"/>
    <text x="412" y="1186" font-family="var(--mono)" font-size="9" fill="#444a59">+ mode: str = "auto"</text>
    <text x="412" y="1202" font-family="var(--mono)" font-size="9" fill="#444a59">+ targets: list[str] = []</text>

    <!-- HarnessIncludeConfig -->
    <rect x="400" y="1260" width="216" height="112" rx="6" fill="#ffffff" stroke="#2d3142"/>
    <text x="508" y="1281" text-anchor="middle" font-family="var(--sans)" font-size="12" font-weight="600" fill="#2d3142">HarnessIncludeConfig</text>
    <line x1="400" y1="1292" x2="616" y2="1292" stroke="rgba(45,49,66,0.25)" stroke-width="0.8"/>
    <text x="412" y="1306" font-family="var(--mono)" font-size="9" fill="#444a59">+ default_profile = "advisory"</text>
    <text x="412" y="1322" font-family="var(--mono)" font-size="9" fill="#444a59">+ profiles: dict[str,list[str]]</text>
    <text x="412" y="1338" font-family="var(--mono)" font-size="9" fill="#444a59">+ exclude_patterns: list[str]</text>

    <!-- draft_targets constants -->
    <rect x="720" y="852" width="280" height="120" rx="6" fill="rgba(45,49,66,0.05)" stroke="#4f5d75"/>
    <text x="860" y="867" text-anchor="middle" font-family="var(--mono)" font-size="8" letter-spacing=".08em" fill="#7a8399">«CONSTANTS · DRAFT_TARGETS.PY»</text>
    <text x="860" y="883" text-anchor="middle" font-family="var(--sans)" font-size="12" font-weight="600" fill="#2d3142">draft_targets</text>
    <line x1="720" y1="892" x2="1000" y2="892" stroke="rgba(45,49,66,0.25)" stroke-width="0.8"/>
    <text x="732" y="906" font-family="var(--mono)" font-size="9" fill="#444a59">DRAFT_TARGET_PRIORITY: tuple</text>
    <text x="732" y="922" font-family="var(--mono)" font-size="9" fill="#444a59">DRAFT_HARNESS_MARKERS: dict</text>
    <text x="732" y="938" font-family="var(--mono)" font-size="9" fill="#444a59">DRAFT_HARNESS_TARGETS: dict</text>
    <text x="732" y="954" font-family="var(--mono)" font-size="9" fill="#444a59">DEFAULT_DRAFT_HARNESS = "opencode"</text>

    <!-- ResolvedDraftTarget -->
    <rect x="720" y="1016" width="280" height="104" rx="6" fill="#ffffff" stroke="#2d3142"/>
    <text x="860" y="1031" text-anchor="middle" font-family="var(--mono)" font-size="8" letter-spacing=".08em" fill="#7a8399">«FROZEN DATACLASS»</text>
    <text x="860" y="1047" text-anchor="middle" font-family="var(--sans)" font-size="12" font-weight="600" fill="#2d3142">ResolvedDraftTarget</text>
    <line x1="720" y1="1056" x2="1000" y2="1056" stroke="rgba(45,49,66,0.25)" stroke-width="0.8"/>
    <text x="732" y="1070" font-family="var(--mono)" font-size="9" fill="#444a59">+ mode: str</text>
    <text x="732" y="1086" font-family="var(--mono)" font-size="9" fill="#444a59">+ harnesses: tuple[str, …]</text>
    <text x="732" y="1102" font-family="var(--mono)" font-size="9" fill="#444a59">+ warning: str|None</text>

    <!-- RemediationSurface -->
    <rect x="720" y="1164" width="280" height="152" rx="6" fill="#ffffff" stroke="#2d3142"/>
    <text x="860" y="1179" text-anchor="middle" font-family="var(--mono)" font-size="8" letter-spacing=".08em" fill="#7a8399">«FROZEN DATACLASS · HARNESS_SCOPE.PY»</text>
    <text x="860" y="1195" text-anchor="middle" font-family="var(--sans)" font-size="12" font-weight="600" fill="#2d3142">RemediationSurface</text>
    <line x1="720" y1="1204" x2="1000" y2="1204" stroke="rgba(45,49,66,0.25)" stroke-width="0.8"/>
    <text x="732" y="1218" font-family="var(--mono)" font-size="9" fill="#444a59">+ decision: str</text>
    <text x="732" y="1234" font-family="var(--mono)" font-size="9" fill="#444a59">+ harnesses: tuple[str, …]</text>
    <text x="732" y="1250" font-family="var(--mono)" font-size="9" fill="#444a59">+ mode: str</text>
    <text x="732" y="1266" font-family="var(--mono)" font-size="9" fill="#444a59">+ reason: str</text>
    <line x1="720" y1="1282" x2="1000" y2="1282" stroke="rgba(45,49,66,0.25)" stroke-width="0.8"/>
    <text x="732" y="1296" font-family="var(--mono)" font-size="9" fill="#444a59">+ to_dict(): dict</text>

    <!-- aside 2 : règles mono-cible / surface 5.5 -->
    <line x1="1152" y1="872" x2="1152" y2="1044" stroke="rgba(45,49,66,0.25)" stroke-width="2"/>
    <text x="1164" y="888" font-family="var(--serif)" font-style="italic" font-size="14" fill="#4f5d75">Mono-cible : un seul harnais cible par projet — override config › détection</text>
    <text x="1164" y="912" font-family="var(--serif)" font-style="italic" font-size="14" fill="#4f5d75">marqueurs (.claude/, .opencode/, .github/prompts, .agents/) › défaut opencode ;</text>
    <text x="1164" y="936" font-family="var(--serif)" font-style="italic" font-size="14" fill="#4f5d75">targets=[] ⇒ legacy : toutes les cibles, priorité claude › opencode › copilot › codex.</text>
    <text x="1164" y="976" font-family="var(--serif)" font-style="italic" font-size="14" fill="#4f5d75">Surface 5.5 : projection (.opencode natif) · portability (mapping portability.yaml)</text>
    <text x="1164" y="1000" font-family="var(--serif)" font-style="italic" font-size="14" fill="#4f5d75">· combined — décision pure, aucune lecture disque.</text>
     <text x="1164" y="1024" font-family="var(--serif)" font-style="italic" font-size="14" fill="#4f5d75">Codex : cible de drafting seule — aucun provider de sessions (télémétrie : OpenCode · Claude Code · Copilot).</text>
     <text x="1164" y="1042" font-family="var(--mono)" font-size="9" fill="#7a8399">architecture-summary boundary · complete rc=0 · partial rc=1 · fatal rc=2</text>


    <!-- ======== package watch (PR technology-scanning-optimisation) ======== -->
    <rect x="24" y="1408" width="1768" height="420" rx="8" fill="rgba(45,49,66,0.03)" stroke="rgba(45,49,66,0.10)"/>
    <text x="40" y="1432" font-family="var(--mono)" font-size="8" letter-spacing=".18em" fill="#4f5d75">PACKAGE · WATCH — WATCH_DISTILL.PY · WATCH_MEMORY.PY · CONTRAT FICHE CANDIDATE</text>

    <!-- composition TelemetryConfig ◆-> WatchDistillConfig -->
    <path d="M 188 1012 V 1464" fill="none" stroke="#4f5d75" stroke-width="1.2" marker-start="url(#dia-f)"/>
    <rect x="196" y="1224" width="100" height="12" fill="#efeff1"/>
    <text x="200" y="1233" font-family="var(--mono)" font-size="8" letter-spacing=".06em" fill="#7a8399">+ watch_distill</text>
    <rect x="196" y="1028" width="14" height="12" fill="#efeff1"/>
    <text x="200" y="1037" font-family="var(--mono)" font-size="8" fill="#4f5d75">1</text>
    <rect x="196" y="1444" width="14" height="12" fill="#efeff1"/>
    <text x="200" y="1453" font-family="var(--mono)" font-size="8" fill="#4f5d75">1</text>

    <!-- dépendances defaults / mémoire -->
    <path d="M 328 1560 H 368" fill="none" stroke="#4f5d75" stroke-width="1" stroke-dasharray="4 3" marker-end="url(#arr-o)"/>
    <rect x="330" y="1540" width="48" height="12" fill="#efeff1"/>
    <text x="354" y="1549" text-anchor="middle" font-family="var(--mono)" font-size="8" letter-spacing=".06em" fill="#7a8399">defaults</text>
    <path d="M 736 1560 H 792" fill="none" stroke="#4f5d75" stroke-width="1" stroke-dasharray="4 3" marker-end="url(#arr-o)"/>
    <rect x="740" y="1540" width="48" height="12" fill="#efeff1"/>
    <text x="764" y="1549" text-anchor="middle" font-family="var(--mono)" font-size="8" letter-spacing=".06em" fill="#7a8399">mémoire</text>

    <!-- association produit fiches -->
    <path d="M 552 1672 V 1690 A 8 8 0 0 0 560 1698 H 1340 A 8 8 0 0 0 1348 1690 V 1676"
          fill="none" stroke="#4f5d75" stroke-width="1.2" marker-end="url(#arr-o)"/>
    <rect x="900" y="1680" width="128" height="12" fill="#efeff1"/>
    <text x="964" y="1689" text-anchor="middle" font-family="var(--mono)" font-size="8" letter-spacing=".06em" fill="#7a8399">produit _build_fiche</text>
    <rect x="556" y="1656" width="14" height="12" fill="#efeff1"/>
    <text x="560" y="1665" font-family="var(--mono)" font-size="8" fill="#4f5d75">1</text>
    <rect x="1296" y="1656" width="34" height="12" fill="#efeff1"/>
    <text x="1330" y="1665" text-anchor="end" font-family="var(--mono)" font-size="8" fill="#4f5d75">0..*</text>


    <!-- WatchDistillConfig -->
    <rect x="56" y="1464" width="264" height="208" rx="6" fill="#ffffff" stroke="#2d3142"/>
    <text x="188" y="1479" text-anchor="middle" font-family="var(--mono)" font-size="8" letter-spacing=".08em" fill="#7a8399">«DATACLASS · SLOTS · CONFIG.PY»</text>
    <text x="188" y="1495" text-anchor="middle" font-family="var(--sans)" font-size="12" font-weight="600" fill="#2d3142">WatchDistillConfig</text>
    <line x1="56" y1="1504" x2="320" y2="1504" stroke="rgba(45,49,66,0.25)" stroke-width="0.8"/>
    <text x="68" y="1518" font-family="var(--mono)" font-size="9" fill="#444a59">+ enabled: bool = True</text>
    <text x="68" y="1534" font-family="var(--mono)" font-size="9" fill="#444a59">+ top_n: int = 30</text>
    <text x="68" y="1550" font-family="var(--mono)" font-size="9" fill="#444a59">+ quotas: dict[str,int] 12·8·5</text>
    <text x="68" y="1566" font-family="var(--mono)" font-size="9" fill="#444a59">+ weights: dict[str,int] Σ=100</text>
    <text x="68" y="1582" font-family="var(--mono)" font-size="9" fill="#444a59">+ memory_file: str = …jsonl</text>
    <text x="68" y="1598" font-family="var(--mono)" font-size="9" fill="#444a59">+ retention_weeks: int = 26</text>
    <text x="68" y="1614" font-family="var(--mono)" font-size="9" fill="#7a8399">+ min_candidates: int = 20 (filet B)</text>

    <!-- utilitaire watch_distill -->
    <rect x="376" y="1464" width="352" height="208" rx="6" fill="rgba(45,49,66,0.05)" stroke="#4f5d75"/>
    <text x="552" y="1479" text-anchor="middle" font-family="var(--mono)" font-size="8" letter-spacing=".08em" fill="#7a8399">«UTILITY · ÉTAPE 2.2 · WATCH_DISTILL.PY»</text>
    <text x="552" y="1495" text-anchor="middle" font-family="var(--sans)" font-size="12" font-weight="600" fill="#2d3142">watch_distill — distill déterministe</text>
    <line x1="376" y1="1504" x2="728" y2="1504" stroke="rgba(45,49,66,0.25)" stroke-width="0.8"/>
    <text x="388" y="1518" font-family="var(--mono)" font-size="9" fill="#444a59">+ score_item(item,*,weights,now,kw): dict</text>
    <text x="388" y="1534" font-family="var(--mono)" font-size="9" fill="#444a59">+ screen_item(item): (clean|suspicious|blocked, r)</text>
    <text x="388" y="1550" font-family="var(--mono)" font-size="9" fill="#444a59">+ rank(candidates): list  (-score, -date, id)</text>
    <text x="388" y="1566" font-family="var(--mono)" font-size="9" fill="#444a59">+ truncate_summary(desc, limit=200): str</text>
    <text x="388" y="1582" font-family="var(--mono)" font-size="9" fill="#444a59">+ run(cfg, anchor=None): (résultat, exit)</text>
    <text x="388" y="1602" font-family="var(--mono)" font-size="8" fill="#7a8399">DEFAULT_WEIGHTS auth25·rel30·fresh20·multi15·tract10</text>
    <text x="388" y="1618" font-family="var(--mono)" font-size="8" fill="#7a8399">QUOTAS new12 · improvable 8 · resurfaced 5 · TOP_N 30</text>
    <text x="388" y="1634" font-family="var(--mono)" font-size="8" fill="#7a8399">screen local : env-exfil · prompt-injection · typosquat ≤2</text>
    <text x="388" y="1650" font-family="var(--mono)" font-size="8" fill="#7a8399">exception → mode=fallback exit 1 (mémoire intacte)</text>

    <!-- utilitaire watch_memory -->
    <rect x="800" y="1464" width="352" height="208" rx="6" fill="rgba(45,49,66,0.05)" stroke="#4f5d75"/>
    <text x="976" y="1479" text-anchor="middle" font-family="var(--mono)" font-size="8" letter-spacing=".08em" fill="#7a8399">«UTILITY · STORE INTER-RUN · WATCH_MEMORY.PY»</text>
    <text x="976" y="1495" text-anchor="middle" font-family="var(--sans)" font-size="12" font-weight="600" fill="#2d3142">watch_memory — mémoire JSONL</text>
    <line x1="800" y1="1504" x2="1152" y2="1504" stroke="rgba(45,49,66,0.25)" stroke-width="0.8"/>
    <text x="812" y="1518" font-family="var(--mono)" font-size="9" fill="#444a59">+ load_memory(path, now): ({id: entrée}, warn)</text>
    <text x="812" y="1534" font-family="var(--mono)" font-size="9" fill="#444a59">+ append_entries(path, updates): warnings</text>
    <text x="812" y="1550" font-family="var(--mono)" font-size="9" fill="#444a59">+ filter_items(items, memory): (kept, dropped)</text>
    <text x="812" y="1566" font-family="var(--mono)" font-size="9" fill="#444a59">+ build_digest(memory): dict borné</text>
    <text x="812" y="1582" font-family="var(--mono)" font-size="9" fill="#444a59">+ normalize_id(name, npm, repo): str</text>
    <text x="812" y="1598" font-family="var(--mono)" font-size="9" fill="#444a59">+ last_status(entry): str|None</text>
    <text x="812" y="1618" font-family="var(--mono)" font-size="8" fill="#7a8399">RETENTION_WEEKS 26 · RECURRENT_MIN_OCC 3 · CAP 20</text>
    <text x="812" y="1634" font-family="var(--mono)" font-size="8" fill="#7a8399">VALID_STATUSES seen·candidate·recommended·ignored·</text>
    <text x="812" y="1648" font-family="var(--mono)" font-size="8" fill="#7a8399">blocked-security · purge épargne recommended|blocked</text>

    <!-- contrat fiche candidate -->
    <rect x="1224" y="1464" width="248" height="208" rx="6" fill="rgba(45,49,66,0.03)" stroke="rgba(45,49,66,0.30)" stroke-dasharray="4 3"/>
    <text x="1348" y="1479" text-anchor="middle" font-family="var(--mono)" font-size="8" letter-spacing=".08em" fill="#7a8399">«JSON · WATCH-CANDIDATES-&lt;DATE&gt;.JSON»</text>
    <text x="1348" y="1495" text-anchor="middle" font-family="var(--sans)" font-size="12" font-weight="600" fill="#2d3142">Fiche candidate (FICHE_KEYS)</text>
    <line x1="1224" y1="1504" x2="1472" y2="1504" stroke="rgba(45,49,66,0.25)" stroke-width="0.8"/>
    <text x="1236" y="1518" font-family="var(--mono)" font-size="9" fill="#444a59">id · name · sources[*]</text>
    <text x="1236" y="1534" font-family="var(--mono)" font-size="9" fill="#444a59">score {total 0-100, breakdown}</text>
    <text x="1236" y="1550" font-family="var(--mono)" font-size="9" fill="#444a59">security {verdict, reason}</text>
    <text x="1236" y="1566" font-family="var(--mono)" font-size="9" fill="#444a59">summary ≤ 200 chars</text>
    <text x="1236" y="1582" font-family="var(--mono)" font-size="9" fill="#444a59">signature (item_signature)</text>
    <text x="1236" y="1598" font-family="var(--mono)" font-size="9" fill="#444a59">local_relevance_hints[] (ét. 2.5)</text>
    <text x="1236" y="1622" font-family="var(--mono)" font-size="8" fill="#7a8399">+ security_annex[] top-level :</text>
    <text x="1236" y="1636" font-family="var(--mono)" font-size="8" fill="#7a8399">les blocked ne sortent jamais</text>
    <text x="1236" y="1650" font-family="var(--mono)" font-size="8" fill="#7a8399">du snapshot vers le LLM (3.5)</text>

    <!-- aside règles mémoire -->
    <line x1="48" y1="1694" x2="48" y2="1748" stroke="rgba(45,49,66,0.25)" stroke-width="2"/>
    <text x="64" y="1706" font-family="var(--serif)" font-style="italic" font-size="14" fill="#4f5d75">Blocked : jamais soumis au LLM — annexe séparée du snapshot, recopiée telle quelle par la validation (étape 3.6).</text>
    <text x="64" y="1726" font-family="var(--serif)" font-style="italic" font-size="14" fill="#4f5d75">Mémoire : seuls les gardés sont ré-enregistrés « seen » ; un ignored à signature inchangée est droppé,</text>
    <text x="64" y="1746" font-family="var(--serif)" font-style="italic" font-size="14" fill="#4f5d75">et toute nouvelle version ou publication le fait ressusciter en catégorie « resurfaced ».</text>

    <!-- légende -->
    <line x1="24" y1="1852" x2="1800" y2="1852" stroke="rgba(45,49,66,0.10)" stroke-width="0.8"/>
    <text x="24" y="1872" font-family="var(--mono)" font-size="8" letter-spacing=".14em" fill="#4f5d75">LEGEND</text>
    <path d="M 24 1891 H 60" stroke="#2d3142" stroke-width="1.2" marker-end="url(#tri-i)"/>
    <text x="72" y="1894" font-family="var(--mono)" font-size="8" fill="#7a8399">inheritance</text>
    <path d="M 280 1891 H 316" stroke="#eb6c36" stroke-width="1.2" stroke-dasharray="5 4" marker-end="url(#tri-a)"/>
    <text x="328" y="1894" font-family="var(--mono)" font-size="8" fill="#7a8399">realization</text>
    <path d="M 560 1891 H 600" stroke="#4f5d75" stroke-width="1.2" marker-start="url(#dia-f)"/>
    <text x="612" y="1894" font-family="var(--mono)" font-size="8" fill="#7a8399">composition (owner ◆)</text>
    <path d="M 900 1891 H 940" stroke="#4f5d75" stroke-width="1.2" marker-start="url(#dia-h)"/>
    <text x="952" y="1894" font-family="var(--mono)" font-size="8" fill="#7a8399">aggregation</text>
    <path d="M 1120 1891 H 1160" stroke="#4f5d75" stroke-width="1.2" marker-end="url(#arr-o)"/>
    <text x="1172" y="1894" font-family="var(--mono)" font-size="8" fill="#7a8399">association · mult both ends</text>
    <path d="M 1470 1891 H 1510" stroke="#4f5d75" stroke-width="1" stroke-dasharray="4 3" marker-end="url(#arr-o)"/>
    <text x="1522" y="1894" font-family="var(--mono)" font-size="8" fill="#7a8399">dependency (uses)</text>
  </svg>
